HIERARCHY
ROOT Hips
{
	OFFSET 56.786499 7.177056 84.163002
	CHANNELS 6 Xposition Yposition Zposition Xrotation Yrotation Zrotation
	JOINT spine
	{
		OFFSET 0.000000 -0.342408 5.954384
		CHANNELS 3 Xrotation Yrotation Zrotation
		JOINT spine1
		{
			OFFSET 0.000000 -0.000001 8.856018
			CHANNELS 3 Xrotation Yrotation Zrotation
			JOINT spine2
			{
				OFFSET 0.000000 -0.000001 8.485672
				CHANNELS 3 Xrotation Yrotation Zrotation
				JOINT Neck
				{
					OFFSET 0.000000 -1.038703 21.786301
					CHANNELS 3 Xrotation Yrotation Zrotation
					JOINT Head
					{
						OFFSET 0.000000 -0.000001 6.582199
						CHANNELS 3 Xrotation Yrotation Zrotation
						End Site
						{
							OFFSET 0.000000 5.254357 15.932602
						}
					}
				}
				JOINT RightShoulder
				{
					OFFSET -3.573071 0.497524 9.163864
					CHANNELS 3 Xrotation Yrotation Zrotation
					JOINT RightArm
					{
						OFFSET 0.000000 -0.000002 12.019196
						CHANNELS 3 Xrotation Yrotation Zrotation
						JOINT RightArmRoll
						{
							OFFSET 0.000000 -0.000001 6.067551
							CHANNELS 3 Xrotation Yrotation Zrotation
							JOINT RightForeArm
							{
								OFFSET 0.000000 -0.000003 17.672607
								CHANNELS 3 Xrotation Yrotation Zrotation
								JOINT RightForeArmRoll
								{
									OFFSET 0.000000 -0.000001 6.808731
									CHANNELS 3 Xrotation Yrotation Zrotation
									JOINT RightHand
									{
										OFFSET 0.000000 -0.000002 13.663605
										CHANNELS 3 Xrotation Yrotation Zrotation
										End Site
										{
											OFFSET 0.000000 0.000000 0.100006
										}
									}
								}
							}
						}
					}
				}
				JOINT LeftShoulder
				{
					OFFSET 3.573071 0.497524 9.163864
					CHANNELS 3 Xrotation Yrotation Zrotation
					JOINT LeftArm
					{
						OFFSET 0.000000 -0.000002 12.019196
						CHANNELS 3 Xrotation Yrotation Zrotation
						JOINT LeftArmRoll
						{
							OFFSET 0.000000 -0.000001 6.067551
							CHANNELS 3 Xrotation Yrotation Zrotation
							JOINT LeftForeArm
							{
								OFFSET 0.000000 -0.000003 17.672607
								CHANNELS 3 Xrotation Yrotation Zrotation
								JOINT LeftForeArmRoll
								{
									OFFSET 0.000000 -0.000001 6.808731
									CHANNELS 3 Xrotation Yrotation Zrotation
									JOINT LeftHand
									{
										OFFSET 0.000000 -0.000002 13.663605
										CHANNELS 3 Xrotation Yrotation Zrotation
										End Site
										{
											OFFSET 0.000000 0.000000 0.100006
										}
									}
								}
							}
						}
					}
				}
			}
		}
	}
	JOINT RightUpLeg
	{
		OFFSET -5.277740 0.811859 -0.967796
		CHANNELS 3 Xrotation Yrotation Zrotation
		JOINT RightUpLegRoll
		{
			OFFSET 0.000000 -0.000003 16.021400
			CHANNELS 3 Xrotation Yrotation Zrotation
			JOINT RightLeg
			{
				OFFSET 0.000000 0.000003 -19.840096
				CHANNELS 3 Xrotation Yrotation Zrotation
				JOINT RightLegRoll
				{
					OFFSET 0.000000 -0.000003 19.904999
					CHANNELS 3 Xrotation Yrotation Zrotation
					JOINT RightFoot
					{
						OFFSET 0.000000 -0.000003 16.567497
						CHANNELS 3 Xrotation Yrotation Zrotation
						JOINT RightToeBase
						{
							OFFSET 0.000000 -0.000002 13.849602
							CHANNELS 3 Xrotation Yrotation Zrotation
							End Site
							{
								OFFSET 0.005871 0.773116 6.707275
							}
						}
					}
				}
			}
		}
	}
	JOINT LeftUpLeg
	{
		OFFSET 5.277740 0.811859 -0.967796
		CHANNELS 3 Xrotation Yrotation Zrotation
		JOINT LeftUpLegRoll
		{
			OFFSET 0.000000 -0.000003 16.021500
			CHANNELS 3 Xrotation Yrotation Zrotation
			JOINT LeftLeg
			{
				OFFSET 0.000000 -0.000003 19.839996
				CHANNELS 3 Xrotation Yrotation Zrotation
				JOINT LeftLegRoll
				{
					OFFSET 0.000000 -0.000003 20.089005
					CHANNELS 3 Xrotation Yrotation Zrotation
					JOINT LeftFoot
					{
						OFFSET 0.000000 -0.000002 16.383499
						CHANNELS 3 Xrotation Yrotation Zrotation
						JOINT LeftToeBase
						{
							OFFSET 0.000000 -0.000002 13.849594
							CHANNELS 3 Xrotation Yrotation Zrotation
							End Site
							{
								OFFSET -0.026310 0.773116 6.707275
							}
						}
					}
				}
			}
		}
	}
}
MOTION
Frames: 13
Frame Time: 0.041667
54.841099 4.007883 83.892990 -5.713639 -0.677698 -0.166909 0.086026 -0.055015 0.105337 4.162625 -0.100376 0.211454 5.807720 -0.097830 0.215920 17.502138 6.515020 -4.062996 -3.567459 -9.581500 -4.087284 -1.879616 -71.864184 -3.518090 -45.407986 -118.486078 -53.943389 0.000003 -0.000004 -0.000003 -0.021265 3.630550 -1.990983 0.000002 0.000001 -3.011611 -5.000153 -7.999945 0.000007 -2.936361 63.101830 3.828099 -34.195564 125.656739 49.363539 -0.000001 -0.000000 -0.000001 -0.024996 -3.639941 1.990773 -0.000000 0.000022 3.011601 -5.000154 7.999945 -0.000019 -1.433003 -178.259550 4.133108 -179.999991 0.000005 -1.060996 167.720240 -3.617527 -0.753839 0.000001 -0.000002 0.183525 71.058023 6.817999 2.190000 25.456936 -7.356897 0.000009 0.143741 -177.560999 1.744387 -0.000005 -0.000004 -1.114280 -12.302619 1.878911 0.572285 0.000001 0.000001 -0.210829 70.832921 -6.816520 -2.207634 25.456950 7.357200 -0.000006 
54.846500 4.008435 83.890900 -5.643455 -0.666366 -0.163473 0.082838 -0.056114 0.105337 4.157146 -0.103188 0.211449 5.802229 -0.100640 0.215924 17.343105 6.477907 -4.063418 -3.554300 -9.528430 -4.096795 -1.887793 -71.860803 -3.526737 -45.378247 -118.509970 -53.936416 0.000003 -0.000004 -0.000001 -0.021268 3.630550 -1.990983 0.000001 0.000000 -3.011609 -5.000152 -7.999947 0.000004 -2.932747 63.060787 3.819765 -34.141319 125.697556 49.352587 -0.000001 -0.000000 0.000001 -0.024997 -3.639941 1.990773 0.000001 0.000021 3.011599 -5.000152 7.999946 -0.000017 -1.507294 -178.287595 4.100907 -179.999991 0.000005 -1.059999 167.723041 -3.603881 -0.752685 0.000000 -0.000003 0.183634 71.055906 6.818002 2.189933 25.456933 -7.356894 0.000009 0.055418 -177.575001 1.740905 -0.000005 -0.000004 -1.113350 -12.323434 1.879426 0.573097 0.000002 0.000001 -0.210785 70.827484 -6.816494 -2.207762 25.456950 7.357199 -0.000006 
54.834400 4.012133 83.888092 -5.573855 -0.655102 -0.159963 0.079649 -0.057176 0.105337 4.151696 -0.105948 0.211441 5.796780 -0.103399 0.215925 17.184035 6.438850 -4.063936 -3.540280 -9.472456 -4.106131 -1.897212 -71.857306 -3.536752 -45.349041 -118.534067 -53.930303 0.000004 -0.000004 -0.000001 -0.021269 3.630549 -1.990983 0.000001 0.000000 -3.011610 -5.000153 -7.999946 0.000005 -2.928504 63.018843 3.810599 -34.085485 125.740012 49.340416 -0.000000 0.000000 -0.000000 -0.024995 -3.639941 1.990772 -0.000000 0.000021 3.011600 -5.000153 7.999945 -0.000016 -1.580954 -178.315639 4.069309 -179.999991 0.000005 -1.059999 167.726018 -3.591226 -0.751751 0.000001 -0.000002 0.183728 71.053959 6.817943 2.189940 25.456933 -7.356894 0.000009 -0.031926 -177.589003 1.737337 -0.000004 -0.000004 -1.112440 -12.343551 1.880162 0.573880 0.000001 0.000001 -0.210720 70.822047 -6.816466 -2.207894 25.456959 7.357201 -0.000006 
54.825802 4.015573 83.888191 -5.504646 -0.643883 -0.156410 0.076458 -0.058214 0.105337 4.146257 -0.108673 0.211428 5.791340 -0.106123 0.215925 17.024953 6.398442 -4.064608 -3.525663 -9.414456 -4.115352 -1.907514 -71.853897 -3.547738 -45.320508 -118.558437 -53.925078 0.000003 -0.000004 -0.000003 -0.021266 3.630550 -1.990983 0.000002 0.000000 -3.011610 -5.000153 -7.999946 0.000005 -2.923807 62.976202 3.800844 -34.029771 125.782523 49.328979 -0.000000 0.000001 0.000001 -0.024996 -3.639940 1.990772 -0.000000 0.000021 3.011599 -5.000153 7.999946 -0.000018 -1.654164 -178.342687 4.038146 -179.999991 0.000005 -1.059003 167.729106 -3.578557 -0.751791 0.000000 -0.000003 0.183813 71.051931 6.817914 2.190058 25.456933 -7.356894 0.000009 -0.118584 -177.603005 1.733720 -0.000004 -0.000004 -1.111550 -12.363269 1.881036 0.574644 0.000001 0.000000 -0.210639 70.816610 -6.816437 -2.207919 25.456955 7.357200 -0.000006 
54.829899 4.019036 83.889297 -5.435681 -0.632687 -0.152844 0.073269 -0.059236 0.105337 4.140838 -0.111378 0.211412 5.785921 -0.108827 0.215925 16.865783 6.357292 -4.065482 -3.510712 -9.355290 -4.124537 -1.918303 -71.850394 -3.559256 -45.290885 -118.583586 -53.918763 0.000004 -0.000004 -0.000001 -0.021269 3.630549 -1.990983 0.000002 0.000001 -3.011609 -5.000153 -7.999945 0.000008 -2.918890 62.933172 3.790786 -33.973293 125.825827 49.316930 -0.000000 -0.000000 -0.000001 -0.024995 -3.639940 1.990772 -0.000001 0.000021 3.011598 -5.000152 7.999946 -0.000017 -1.727126 -178.370732 4.007289 -179.999991 0.000005 -1.059003 167.732166 -3.566864 -0.751061 0.000001 -0.000002 0.183891 71.050100 6.817854 2.189962 25.456935 -7.356894 0.000009 -0.204843 -177.618018 1.730086 -0.000005 -0.000004 -1.110680 -12.382686 1.882000 0.575395 0.000001 0.000001 -0.210550 70.811078 -6.816441 -2.208058 25.456957 7.357199 -0.000006 
54.815498 4.041713 83.887802 -5.366767 -0.621491 -0.149294 0.070076 -0.060256 0.105337 4.135418 -0.114077 0.211397 5.780501 -0.111526 0.215924 16.706650 6.315988 -4.066611 -3.495684 -9.295844 -4.133721 -1.929224 -71.846992 -3.570920 -45.261481 -118.608803 -53.912640 0.000004 -0.000004 -0.000003 -0.021266 3.630550 -1.990982 0.000002 0.000000 -3.011609 -5.000152 -7.999947 0.000006 -2.913921 62.890142 3.780664 -33.916947 125.869199 49.305015 0.000000 0.000000 -0.000001 -0.024996 -3.639941 1.990770 0.000000 0.000022 3.011599 -5.000154 7.999946 -0.000020 -1.800023 -178.397793 3.976534 -179.999991 0.000005 -1.059003 167.735349 -3.554210 -0.750103 0.000001 -0.000003 0.183968 71.048147 6.817795 2.189970 25.456935 -7.356895 0.000009 -0.291007 -177.632033 1.726486 -0.000004 -0.000004 -1.109810 -12.402106 1.882983 0.576146 0.000001 0.000000 -0.210459 70.805648 -6.816408 -2.208086 25.456955 7.357200 -0.000006 
54.811100 4.041196 83.887703 -5.297744 -0.610272 -0.145792 0.066880 -0.061282 0.105337 4.129988 -0.116788 0.211382 5.775071 -0.114234 0.215923 16.547672 6.275138 -4.068022 -3.480842 -9.236980 -4.142992 -1.939879 -71.843481 -3.582298 -45.233105 -118.633214 -53.907668 0.000003 -0.000004 -0.000002 -0.021266 3.630550 -1.990982 0.000001 0.000000 -3.011608 -5.000153 -7.999945 0.000006 -2.909089 62.847207 3.770718 -33.861657 125.911805 49.294223 0.000000 0.000000 0.000001 -0.024996 -3.639940 1.990774 0.000001 0.000021 3.011600 -5.000152 7.999946 -0.000019 -1.873049 -178.425838 3.945787 -179.999991 0.000005 -1.058005 167.738408 -3.542516 -0.749376 0.000001 -0.000002 0.184048 71.046228 6.817763 2.189983 25.456931 -7.356893 0.000009 -0.377370 -177.646049 1.722970 -0.000004 -0.000004 -1.108930 -12.421621 1.883926 0.576903 0.000001 0.000001 -0.210372 70.800109 -6.816411 -2.208228 25.456955 7.357199 -0.000006 
54.805698 4.054134 83.883499 -5.228426 -0.599009 -0.142369 0.063692 -0.062327 0.105336 4.124548 -0.119523 0.211368 5.769633 -0.116969 0.215922 16.388658 6.235351 -4.069742 -3.466436 -9.179578 -4.152379 -1.949917 -71.840073 -3.592989 -45.203346 -118.658240 -53.900950 0.000004 -0.000004 -0.000001 -0.021267 3.630550 -1.990984 0.000001 0.000000 -3.011611 -5.000154 -7.999947 0.000006 -2.904586 62.804771 3.761188 -33.806359 125.954412 49.283046 -0.000001 -0.000000 0.000002 -0.024995 -3.639941 1.990774 -0.000000 0.000021 3.011598 -5.000153 7.999945 -0.000016 -1.946409 -178.452885 3.914798 -179.999991 0.000005 -1.058005 167.741482 -3.529859 -0.748428 0.000001 -0.000003 0.184135 71.044192 6.817733 2.190003 25.456931 -7.356894 0.000009 -0.464212 -177.660078 1.719566 -0.000004 -0.000004 -1.108030 -12.441439 1.884769 0.577677 0.000001 0.000001 -0.210295 70.794672 -6.816377 -2.208255 25.456952 7.357198 -0.000006 
54.802799 4.058964 83.882790 -5.158654 -0.587677 -0.139055 0.060505 -0.063400 0.105336 4.119090 -0.122298 0.211356 5.764173 -0.119743 0.215920 16.229841 6.197207 -4.071807 -3.452723 -9.124504 -4.161944 -1.958938 -71.836583 -3.602577 -45.174315 -118.682323 -53.894899 0.000003 -0.000004 -0.000001 -0.021265 3.630550 -1.990982 0.000001 0.000001 -3.011610 -5.000153 -7.999947 0.000006 -2.900632 62.763127 3.752377 -33.752104 125.996267 49.272469 -0.000001 0.000000 0.000003 -0.024998 -3.639939 1.990776 0.000000 0.000021 3.011598 -5.000154 7.999946 -0.000019 -2.020269 -178.481941 3.883537 -179.999991 0.000005 -1.056994 167.744351 -3.517188 -0.748501 0.000001 -0.000003 0.184234 71.042252 6.817672 2.190011 25.456935 -7.356895 0.000008 -0.551838 -177.675104 1.716323 -0.000005 -0.000004 -1.107120 -12.461755 1.885432 0.578471 0.000002 0.000001 -0.210236 70.789242 -6.816377 -2.208288 25.456948 7.357199 -0.000007 
54.796799 4.054666 83.883598 -5.088248 -0.576256 -0.135882 0.057314 -0.064513 0.105335 4.113600 -0.125129 0.211349 5.758682 -0.122572 0.215918 16.071225 6.161327 -4.074230 -3.439971 -9.072633 -4.171735 -1.966590 -71.833202 -3.610651 -45.144562 -118.706079 -53.887734 0.000003 -0.000004 -0.000002 -0.021268 3.630549 -1.990982 0.000003 0.000001 -3.011609 -5.000154 -7.999947 0.000007 -2.897378 62.722460 3.744470 -33.697978 126.038164 49.261138 -0.000000 -0.000000 0.000000 -0.024996 -3.639941 1.990773 -0.000001 0.000022 3.011600 -5.000152 7.999945 -0.000016 -2.094861 -178.509999 3.851734 -179.999991 0.000005 -1.056994 167.747055 -3.503537 -0.747364 0.000000 -0.000003 0.184349 71.040121 6.817677 2.190042 25.456933 -7.356893 0.000009 -0.640541 -177.689147 1.713281 -0.000005 -0.000004 -1.106170 -12.482771 1.885865 0.579299 0.000001 0.000000 -0.210201 70.783812 -6.816344 -2.208414 25.456957 7.357200 -0.000006 
54.789600 4.065913 83.878693 -5.017035 -0.564724 -0.132881 0.054130 -0.065677 0.105335 4.108060 -0.128031 0.211347 5.753143 -0.125473 0.215917 15.912724 6.128299 -4.077015 -3.428424 -9.024835 -4.181810 -1.972482 -71.829842 -3.616794 -45.115209 -118.728741 -53.880654 0.000004 -0.000004 -0.000002 -0.021266 3.630550 -1.990983 0.000001 0.000001 -3.011609 -5.000153 -7.999947 0.000003 -2.895046 62.683078 3.737765 -33.645508 126.078421 49.250831 -0.000000 -0.000000 0.000000 -0.024996 -3.639941 1.990773 -0.000000 0.000021 3.011602 -5.000152 7.999946 -0.000017 -2.170335 -178.539041 3.819289 -179.999991 0.000005 -1.055997 167.749637 -3.489886 -0.746235 0.000000 -0.000002 0.184484 71.037997 6.817677 2.189973 25.456933 -7.356893 0.000008 -0.730610 -177.703190 1.710488 -0.000005 -0.000005 -1.105180 -12.504685 1.885998 0.580167 0.000002 0.000001 -0.210196 70.778389 -6.816373 -2.208449 25.456957 7.357199 -0.000005 
54.767300 4.073755 83.877792 -4.944842 -0.553057 -0.130084 0.050948 -0.066903 0.105335 4.102481 -0.131018 0.211351 5.747564 -0.128460 0.215917 15.754562 6.098740 -4.080185 -3.418336 -8.981972 -4.192224 -1.976247 -71.826508 -3.620607 -45.084658 -118.750885 -53.871724 0.000004 -0.000004 -0.000002 -0.021266 3.630550 -1.990983 0.000001 0.000000 -3.011611 -5.000153 -7.999946 0.000007 -2.893778 62.645163 3.732450 -33.594067 126.117940 49.240299 0.000000 -0.000000 -0.000001 -0.024995 -3.639941 1.990772 -0.000000 0.000021 3.011598 -5.000153 7.999945 -0.000019 -2.246912 -178.569094 3.786063 -179.999991 0.000005 -1.054999 167.751919 -3.475256 -0.745924 0.000001 -0.000002 0.184644 71.035668 6.817750 2.189926 25.456933 -7.356893 0.000008 -0.822343 -177.717233 1.707992 -0.000005 -0.000004 -1.104130 -12.527597 1.885783 0.581084 0.000002 0.000001 -0.210227 70.773075 -6.816370 -2.208576 25.456948 7.357198 -0.000006 
54.785099 4.099583 83.867210 -4.871489 -0.541236 -0.127523 0.047771 -0.068201 0.105335 4.096841 -0.134107 0.211362 5.741916 -0.131547 0.215915 15.596541 6.073231 -4.083697 -3.409979 -8.944921 -4.203006 -1.977520 -71.823291 -3.621682 -45.054212 -118.771812 -53.862445 0.000003 -0.000004 -0.000002 -0.021267 3.630549 -1.990983 0.000001 0.000001 -3.011609 -5.000153 -7.999947 0.000005 -2.893820 62.609243 3.728834 -33.543640 126.156709 49.229347 -0.000001 -0.000000 0.000000 -0.024997 -3.639940 1.990770 -0.000000 0.000022 3.011600 -5.000153 7.999945 -0.000020 -2.324765 -178.599161 3.751866 -179.999991 0.000005 -1.054999 167.753940 -3.459648 -0.744409 0.000000 -0.000003 0.184833 71.033243 6.817815 2.189986 25.456936 -7.356893 0.000009 -0.916027 -177.732300 1.705840 -0.000005 -0.000004 -1.103030 -12.551804 1.885127 0.582056 0.000001 0.000000 -0.210301 70.767747 -6.816367 -2.208701 25.456950 7.357198 -0.000006 
